<svg xmlns="http://www.w3.org/2000/svg">
    <symbol id="cards" viewBox="0 -960 960 960">
        <path style="fill: var(--icon-color)"
              d="M240-500v-220h220v220H240Zm0 260v-220h220v220H240Zm260-260v-220h220v220H500Zm0 260v-220h220v220H500ZM320-580h60v-60h-60v60Zm260 0h60v-60h-60v60ZM320-320h60v-60h-60v60Zm260 0h60v-60h-60v60ZM380-580Zm200 0Zm0 200Zm-200 0ZM200-120q-33 0-56.5-23.5T120-200v-560q0-33 23.5-56.5T200-840h560q33 0 56.5 23.5T840-760v560q0 33-23.5 56.5T760-120H200Zm0-80h560v-560H200v560Z"/>
    </symbol>
    <symbol id="close" viewBox="0 -960 960 960">
        <path style="fill: var(--icon-color)"
              d="m256-200-56-56 224-224-224-224 56-56 224 224 224-224 56 56-224 224 224 224-56 56-224-224-224 224Z"/>
    </symbol>
    <symbol id="flash" viewBox="0 -960 960 960">
        <path style="fill: var(--icon-color)"
              d="m480-336 128-184H494l80-280H360v320h120v144ZM400-80v-320H280v-480h400l-80 280h160L400-80Zm80-400H360h120Z"/>
    </symbol>
    <symbol id="logo" viewBox="0 0 79.804 61.221">
        <path clip-rule="evenodd" style="fill: var(--icon-color)"
              d="m58.312 20.487c.217 3.232.224 7.023 0 10.095-13.701.443-27.863-.192-41.812.197-.937.026-1.869-.088-2.722.05-1.51.243-2.683 1.432-2.969 2.969-.368 1.981-.099 4.839-.099 7.026 0 2.421-.241 4.766.099 6.978.322 2.093 1.917 2.919 4.403 2.919 15.852.001 31.25-.1 47.157-.099 2.634 0 4.644-.049 5.739-1.584 1.089-2.289.742-5.626.743-8.708 0-3.127-.051-6.412-.05-9.402.001-3.083.185-6.299.05-9.401-.134-3.034.353-6.25-.792-8.561-.967-2.152-3.59-2.325-6.532-2.325-6.045 0-11.22.05-17.367.05-14.495 0-29.045.151-43.693-.05-.189-3.248-.155-7.064 0-10.392.569-.263 1.24-.149 1.831-.149 17.244.002 35.334-.098 52.352-.098h11.976c1.38 0 2.778-.023 3.958.099 2.477.257 4.4 1.236 5.69 2.425 1.68 1.318 2.975 3.106 3.315 5.789.337 2.653.148 5.849.148 8.957 0 3.021.061 6.077 0 9.104-.118 5.966.001 11.82 0 17.912 0 3.032.29 6.3-.347 8.759-.603 2.329-1.89 4.125-3.562 5.542-1.671 1.415-3.839 2.386-6.631 2.474-3.03.095-6.079-.137-9.104 0-3.02.137-6.027.05-9.056.05-11.986-.001-23.868.051-35.973.05-3.077-.001-6.001.313-8.313-.495-2.308-.807-3.77-2.133-5.145-3.959-.761-1.272-1.481-2.665-1.534-4.552-.162-5.775.27-12.495 0-18.21-.101-2.15-.151-4.11.247-5.739.711-2.91 2.931-5.525 5.393-6.729 1.414-.692 2.988-.94 5.097-.94 15.792-.003 31.736-.232 47.503-.052z"
              fill-rule="evenodd"/>
    </symbol>
    <symbol id="menu" viewBox="0 -960 960 960">
        <path style="fill: var(--icon-color)" d="M120-240v-80h720v80H120Zm0-200v-80h720v80H120Zm0-200v-80h720v80H120Z"/>
    </symbol>
    <symbol id="table" viewBox="0 -960 960 960">
        <path style="fill: var(--icon-color)"
              d="M120-120v-720h720v720H120Zm80-480h560v-160H200v160Zm213 200h134v-120H413v120Zm0 200h134v-120H413v120ZM200-400h133v-120H200v120Zm427 0h133v-120H627v120ZM200-200h133v-120H200v120Zm427 0h133v-120H627v120Z"/>
    </symbol>
</svg>
